<?xml version="1.0" encoding="UTF-8" standalone="no"?>
<!-- Created with Inkscape (http://www.inkscape.org/) -->

<svg
   width="27.471487mm"
   height="27.471487mm"
   viewBox="0 0 27.471487 27.471487"
   version="1.1"
   id="svg5"
   xml:space="preserve"
   inkscape:version="1.2.2 (b0a8486541, 2022-12-01)"
   sodipodi:docname="logo.svg"
   inkscape:export-filename="logo.png"
   inkscape:export-xdpi="96"
   inkscape:export-ydpi="96"
   xmlns:inkscape="http://www.inkscape.org/namespaces/inkscape"
   xmlns:sodipodi="http://sodipodi.sourceforge.net/DTD/sodipodi-0.dtd"
   xmlns:xlink="http://www.w3.org/1999/xlink"
   xmlns="http://www.w3.org/2000/svg"
   xmlns:svg="http://www.w3.org/2000/svg"><sodipodi:namedview
     id="namedview7"
     pagecolor="#ffffff"
     bordercolor="#000000"
     borderopacity="0.25"
     inkscape:showpageshadow="2"
     inkscape:pageopacity="0.0"
     inkscape:pagecheckerboard="0"
     inkscape:deskcolor="#d1d1d1"
     inkscape:document-units="mm"
     showgrid="false"
     inkscape:zoom="2.9469416"
     inkscape:cx="-98.916109"
     inkscape:cy="45.979872"
     inkscape:window-width="1920"
     inkscape:window-height="1007"
     inkscape:window-x="0"
     inkscape:window-y="0"
     inkscape:window-maximized="1"
     inkscape:current-layer="layer1" /><defs
     id="defs2"><linearGradient
       inkscape:collect="always"
       id="linearGradient929"><stop
         style="stop-color:#ff0000;stop-opacity:1;"
         offset="0"
         id="stop925" /><stop
         style="stop-color:#ff9610;stop-opacity:1;"
         offset="1"
         id="stop927" /></linearGradient><linearGradient
       inkscape:collect="always"
       xlink:href="#linearGradient929"
       id="linearGradient931"
       x1="59.02948"
       y1="47.217445"
       x2="86.500969"
       y2="47.217445"
       gradientUnits="userSpaceOnUse" /></defs><g
     inkscape:label="Layer 1"
     inkscape:groupmode="layer"
     id="layer1"
     transform="translate(-59.02948,-33.481701)"><rect
       style="fill:url(#linearGradient931);fill-opacity:1;stroke-width:0.264583"
       id="rect171"
       width="27.471487"
       height="27.471487"
       x="59.02948"
       y="33.481701"
       rx="5"
       ry="5" /><path
       style="fill:#ffffff;stroke-width:0.0896676"
       d="m 71.914986,57.187756 c -0.07398,-0.01449 -0.43713,-0.07546 -0.807008,-0.135474 -1.480017,-0.24015 -3.342214,-1.144888 -4.525631,-2.198754 l -0.356088,-0.317107 0.400922,0.05375 c 0.220507,0.02956 0.53206,0.07364 0.692341,0.09796 0.171121,0.02596 0.29142,0.0055 0.29142,-0.04952 0,-0.05155 -0.03683,-0.09373 -0.08184,-0.09373 -0.04501,0 -0.322745,-0.23719 -0.61718,-0.527089 -0.985905,-0.970716 -1.542666,-2.2981 -1.542666,-3.677894 0,-1.288356 0.397164,-2.386119 1.244207,-3.438992 l 0.414643,-0.515402 0.05397,0.649903 c 0.07652,0.921386 0.248174,1.262646 0.770999,1.532799 0.848096,0.438228 1.371352,-0.04259 1.372412,-1.261103 7.18e-4,-0.787125 0.209604,-2.155135 0.442067,-2.894659 0.377279,-1.200221 0.87577,-1.796549 1.607918,-1.923501 0.527936,-0.09154 0.789069,-0.226338 0.896885,-0.46297 0.06292,-0.138106 0.101299,-0.815163 0.101299,-1.787291 0,-0.86073 0.0232,-1.564964 0.05155,-1.564964 0.07635,0 1.246538,0.761944 1.965972,1.280104 0.82906,0.597118 2.076557,1.874554 2.454846,2.513763 0.550523,0.930239 0.751069,1.616408 0.751874,2.572532 3.59e-4,0.468513 -0.02932,1.141809 -0.06603,1.496212 -0.06368,0.614724 -0.05617,0.654947 0.16314,0.874259 0.453555,0.453555 1.022583,0.237968 1.354,-0.512989 l 0.198098,-0.448866 0.360991,0.842458 c 0.441619,1.030622 0.53204,1.351446 0.650417,2.307759 0.212232,1.714542 -0.285229,3.128149 -1.522768,4.327164 -0.554698,0.53743 -0.692815,0.721533 -0.653653,0.871289 0.05693,0.217702 0.306981,0.323588 0.568296,0.24065 0.306239,-0.0972 0.202558,0.0064 -0.470755,0.470502 -1.232484,0.849477 -2.478635,1.35325 -3.929467,1.58854 -0.747253,0.121186 -1.850892,0.165949 -2.235179,0.09066 z m 2.376191,-0.423937 c 1.281397,-0.55059 2.209294,-1.377395 3.395914,-3.025943 0.532926,-0.740383 0.644844,-0.947286 0.523911,-0.968549 -0.322611,-0.05672 -0.554398,-0.234095 -0.696079,-0.532665 -0.16596,-0.349736 -0.135825,-0.645714 0.154875,-1.521131 0.140206,-0.42222 0.169274,-0.659965 0.120476,-0.985371 l -0.06432,-0.428885 -0.1616,0.199568 c -0.353688,0.436787 -1.099642,0.512891 -1.463247,0.149286 -0.383615,-0.383615 -0.455722,-0.747507 -0.333559,-1.683312 0.259628,-1.988816 -0.422164,-4.015813 -1.865582,-5.546458 l -0.597138,-0.633223 -0.06644,0.528064 c -0.09461,0.751915 -0.479165,1.46157 -1.395122,2.574552 -0.798805,0.970631 -1.130813,1.483308 -1.287779,1.988553 -0.04596,0.147952 -0.11782,0.826224 -0.159681,1.507272 -0.08637,1.405239 -0.267639,1.916788 -0.808338,2.281184 -0.491897,0.331506 -1.02129,0.27937 -1.597259,-0.157304 -0.259915,-0.197057 -0.510551,-0.358285 -0.556966,-0.358285 -0.04642,0 -0.128483,0.163738 -0.182371,0.36386 -0.131651,0.488919 0.02886,1.022951 0.709232,2.359706 1.092813,2.14709 2.11031,3.387857 3.217929,3.924046 0.412306,0.199593 1.495219,0.338195 2.126799,0.272207 0.197269,-0.02061 0.641124,-0.158838 0.986345,-0.307172 z m -7.522558,-11.386537 -0.338368,-0.561331 0.05609,-1.075276 c 0.03085,-0.591402 0.08875,-1.107941 0.128677,-1.147865 0.128868,-0.128868 0.628278,0.550641 0.774584,1.053917 0.13056,0.449111 0.12991,0.556535 -0.008,1.322197 -0.08256,0.458353 -0.178118,0.864042 -0.212359,0.901529 -0.03424,0.03749 -0.214524,-0.18444 -0.400626,-0.493171 z m 12.171618,-0.05902 c -0.102028,-0.753725 -0.03193,-1.005786 0.586601,-2.109245 0.428011,-0.763576 0.467688,-0.76511 0.633658,-0.02452 0.168182,0.750459 -0.04014,1.30676 -0.945691,2.525321 l -0.187424,0.25221 z"
       id="path4683" /></g></svg>
