<svg width="108" height="123" viewBox="0 0 108 123" fill="none" xmlns="http://www.w3.org/2000/svg">
<path d="M80.5727 109.555C80.4552 108.995 80.4034 107.836 80.4574 106.98C80.5449 105.594 80.7046 105.409 81.9114 105.289C83.5872 105.124 84.5018 106.099 84.117 107.641C83.913 108.459 83.5441 108.759 82.7414 108.759C82.0811 108.759 81.6446 109.014 81.6446 109.399C81.6446 110.502 80.797 110.625 80.5727 109.555ZM82.9709 107.228C82.9709 106.876 82.7857 106.472 82.5593 106.332C82.0337 106.005 81.5051 106.838 81.8656 107.424C82.2721 108.086 82.9709 107.962 82.9709 107.228ZM13.5622 108.895C11.7572 108.246 11.1894 105.444 12.6023 104.158C13.4825 103.357 15.5628 103.165 15.9818 103.847C16.1255 104.081 16.5041 104.172 16.8232 104.049C17.2536 103.883 17.4239 104.461 17.4834 106.292C17.5302 107.733 17.3751 108.759 17.1102 108.759C16.8608 108.759 16.6569 107.858 16.6569 106.757C16.6569 104.994 16.5386 104.75 15.6621 104.704C13.6861 104.599 12.7092 105.08 12.6848 106.17C12.6665 106.984 14.2084 107.914 15.1731 107.671C15.8989 107.487 16.2148 107.598 16.2148 108.036C16.2148 108.98 14.9438 109.391 13.5622 108.895ZM18.1661 108.152C18.027 107.787 17.9787 107.024 18.0587 106.456C18.2501 105.097 20.8815 104.678 21.2103 105.954C21.4093 106.726 21.4193 106.726 21.4686 105.95C21.5089 105.315 21.827 105.173 22.9567 105.282C24.2764 105.411 24.4049 105.562 24.5335 107.136C24.6366 108.4 24.5204 108.8 24.0914 108.656C23.7712 108.549 23.5093 108.044 23.5093 107.534C23.5093 106.474 22.8725 105.615 22.7952 106.571C22.7671 106.917 22.7174 107.496 22.6846 107.857C22.6503 108.236 22.1104 108.554 21.4094 108.609C20.3323 108.693 20.1936 108.552 20.1936 107.37C20.1936 106.594 20.0087 106.151 19.7515 106.311C19.5084 106.462 19.3094 106.963 19.3094 107.423C19.3094 108.499 18.4963 109.018 18.1661 108.152ZM25.2367 107.641C24.8734 106.185 25.714 105.201 27.3212 105.201C28.5107 105.201 28.5934 105.317 28.5934 106.98C28.5934 108.714 28.5551 108.759 27.0545 108.759C25.7796 108.759 25.4677 108.567 25.2367 107.641ZM27.5119 107.386C27.9675 106.644 26.9429 105.794 26.333 106.407C25.8229 106.92 26.1421 107.869 26.825 107.869C27.0394 107.869 27.3486 107.652 27.5119 107.386ZM29.4054 108.538C29.2978 108.43 29.2919 107.634 29.3923 106.769C29.5742 105.202 29.5814 105.197 31.6261 105.31C33.6543 105.422 33.679 105.442 33.8147 107.091C33.8941 108.056 33.7545 108.759 33.4831 108.759C33.2253 108.759 33.0143 108.146 33.0143 107.398C33.0143 106.605 32.8302 106.152 32.5722 106.313C32.3291 106.464 32.1301 107.076 32.1301 107.673C32.1301 108.27 31.9312 108.759 31.6881 108.759C31.4449 108.759 31.246 108.146 31.246 107.398C31.246 106.605 31.0618 106.152 30.8039 106.313C30.5607 106.464 30.3618 106.964 30.3618 107.424C30.3618 108.25 29.7858 108.921 29.4054 108.538ZM34.8711 108.225C33.5388 106.885 34.8612 104.901 36.7664 105.382C37.6305 105.6 37.8773 105.946 37.8773 106.941C37.8773 108.628 36.0485 109.409 34.8711 108.225ZM36.7959 107.386C37.2515 106.644 36.2268 105.794 35.617 106.407C35.1068 106.92 35.4261 107.869 36.109 107.869C36.3234 107.869 36.6325 107.652 36.7959 107.386ZM38.3194 106.952C38.3194 105.181 38.3482 105.147 39.7562 105.284C41.0541 105.41 41.193 105.563 41.193 106.869C41.193 108.281 40.3528 109.188 40.2662 107.869C40.1634 106.302 40.0641 106.053 39.6457 106.313C39.4025 106.464 39.2036 107.076 39.2036 107.673C39.2036 108.27 39.0047 108.759 38.7615 108.759C38.5184 108.759 38.3194 107.945 38.3194 106.952ZM49.3894 108.113C48.215 106.689 49.9399 104.503 51.4717 105.473C53.0024 106.443 52.457 108.759 50.698 108.759C50.2713 108.759 49.6824 108.468 49.3894 108.113ZM51.385 107.386C51.8406 106.644 50.8159 105.794 50.206 106.407C49.6959 106.92 50.0152 107.869 50.698 107.869C50.9125 107.869 51.2216 107.652 51.385 107.386ZM53.439 108.225C52.3286 107.108 53.1552 105.201 54.7497 105.201C55.1789 105.201 55.7359 105.588 55.9876 106.061C56.5795 107.174 56.5724 107.233 55.7505 108.06C54.9198 108.895 54.1595 108.95 53.439 108.225ZM55.34 106.974C55.34 106.02 54.0554 106.158 53.8691 107.131C53.7554 107.726 53.9354 107.907 54.5262 107.792C54.9738 107.706 55.34 107.337 55.34 106.974ZM57.4208 108.228C56.2564 107.057 57.4014 104.792 58.8711 105.359C59.3651 105.55 59.5399 105.308 59.5399 104.431C59.5399 103.595 59.6783 103.383 60.0087 103.716C60.2666 103.975 60.4158 105.15 60.3403 106.327C60.2177 108.238 60.0835 108.482 59.0786 108.615C58.4602 108.697 57.7141 108.523 57.4208 108.228ZM59.3189 106.974C59.3189 106.02 58.0343 106.158 57.848 107.131C57.7342 107.726 57.9142 107.907 58.505 107.792C58.9526 107.706 59.3189 107.337 59.3189 106.974ZM66.1713 107.09C66.1713 106.091 66.0506 104.957 65.903 104.57C65.7308 104.119 65.8754 103.867 66.3062 103.867C66.8504 103.867 66.9348 104.31 66.7515 106.202C66.4732 109.073 66.1713 109.535 66.1713 107.09ZM67.6839 107.666C67.529 107.045 67.5169 106.237 67.6571 105.869C67.9387 105.131 69.7081 104.938 69.7081 105.646C69.7081 105.89 69.5091 106.09 69.266 106.09C69.0228 106.09 68.8239 106.579 68.8239 107.176C68.8239 108.689 68.0248 109.033 67.6839 107.666ZM70.6806 108.225C70.3889 107.932 70.1501 107.235 70.1501 106.677C70.1501 105.317 72.0611 104.79 73.208 105.835C73.9293 106.491 74.0489 106.497 74.2815 105.887C74.4255 105.51 75.0469 105.201 75.6624 105.201C76.4868 105.201 76.7815 104.967 76.7815 104.312C76.7815 103.822 76.9805 103.422 77.2236 103.422C77.4692 103.422 77.6657 104.608 77.6657 106.091V108.759H76.077C74.8601 108.759 74.4342 108.551 74.2571 107.869C74.1299 107.38 73.8733 106.98 73.6869 106.98C73.5005 106.98 73.2439 107.38 73.1167 107.869C72.86 108.857 71.5052 109.055 70.6806 108.225ZM72.2409 107.601C72.094 107.453 71.7127 107.437 71.3935 107.565C71.0409 107.707 71.1456 107.813 71.6606 107.834C72.1267 107.853 72.3878 107.748 72.2409 107.601ZM76.6802 107.063C76.778 106.768 76.4487 106.535 75.9342 106.535C75.0158 106.535 74.7406 107.002 75.3171 107.582C75.7267 107.994 76.4649 107.713 76.6802 107.063ZM84.7392 106.313C84.7392 104.388 84.8869 103.867 85.4322 103.867C85.913 103.867 86.0431 104.127 85.8571 104.716C85.6159 105.481 85.7677 105.542 87.3746 105.325C89.3566 105.057 89.7077 105.634 88.4285 107.056C87.7406 107.821 87.7554 107.869 88.6756 107.869C89.2156 107.869 89.5319 108.069 89.3812 108.314C89.1027 108.767 86.5076 108.954 86.5076 108.521C86.5076 108.39 86.8289 107.79 87.2216 107.187C87.9029 106.141 87.8927 106.091 87.0005 106.091C86.2563 106.091 86.0655 106.363 86.0655 107.425C86.0655 108.314 85.8445 108.759 85.4024 108.759C84.8933 108.759 84.7392 108.191 84.7392 106.313ZM90.2181 108.092C90.3657 107.725 90.6072 107.124 90.7548 106.758C90.9024 106.391 90.803 106.09 90.5337 106.09C90.2646 106.09 90.0443 105.89 90.0443 105.646C90.0443 105.401 90.6412 105.201 91.3706 105.201C92.8768 105.201 92.9833 105.481 92.0087 106.881C91.3858 107.776 91.3858 107.869 92.0087 107.869C92.3872 107.869 92.6969 108.07 92.6969 108.314C92.6969 108.559 92.0788 108.759 91.3233 108.759C90.2778 108.759 90.0138 108.599 90.2181 108.092ZM93.8245 108.051C93.0125 107.234 93.0055 107.172 93.5966 106.061C93.8848 105.519 94.521 105.201 95.3148 105.201C96.3753 105.201 96.606 105.411 96.7685 106.525C96.8749 107.253 96.8475 108.003 96.7083 108.192C96.2382 108.83 94.5152 108.746 93.8245 108.051ZM95.9085 107.603C96.3387 107.171 95.748 106.09 95.0811 106.09C94.7424 106.09 94.4653 106.491 94.4653 106.98C94.4653 107.817 95.3263 108.189 95.9085 107.603ZM44.5797 107.181C43.8585 105.589 43.9664 104.808 44.7613 105.866C45.3338 106.628 45.4878 106.659 45.8525 106.088C46.2293 105.498 46.3249 105.498 46.7017 106.088C47.0669 106.66 47.226 106.629 47.8371 105.866C48.5212 105.012 48.5372 105.029 48.2654 106.313C47.9024 108.027 47.2472 108.729 46.756 107.929C46.499 107.511 46.2962 107.478 46.0852 107.822C45.6053 108.603 45.1325 108.402 44.5797 107.181ZM63.5187 106.571C63.5187 104.399 63.8762 103.422 64.6713 103.422C65.407 103.422 65.4861 104.135 64.7978 104.563C64.4565 104.775 64.4888 104.979 64.9046 105.238C65.3794 105.533 65.389 105.721 64.9518 106.161C64.6499 106.464 64.4029 107.073 64.4029 107.513C64.4029 107.954 64.204 108.314 63.9608 108.314C63.7177 108.314 63.5187 107.53 63.5187 106.571ZM25.9408 100.326C10.6387 99.8241 23.737 99.4275 54.4558 99.4623C86.0479 99.4981 95.5939 99.8158 83.6746 100.434C76.9598 100.783 37.6315 100.709 25.9408 100.326ZM38.8542 92.1927C38.9749 88.7436 39.0437 88.515 40.0028 88.3782C41.4472 88.1723 43.1825 89.441 43.1825 90.7031C43.1825 91.9282 42.5396 92.5591 40.859 92.9834C39.8859 93.2291 39.6457 93.5444 39.6457 94.5757C39.6457 95.283 39.4387 95.8617 39.1857 95.8617C38.894 95.8617 38.7727 94.52 38.8542 92.1927ZM41.7764 90.6362C41.8915 89.8212 41.7069 89.6355 40.7817 89.6355C39.8565 89.6355 39.6457 89.8476 39.6457 90.7783C39.6457 91.709 39.8303 91.8947 40.6404 91.7789C41.2797 91.6876 41.6856 91.2792 41.7764 90.6362ZM44.0666 93.1933C44.0666 91.7109 44.2631 90.525 44.5087 90.525C44.7543 90.525 44.9508 91.7109 44.9508 93.1933C44.9508 94.6757 44.7543 95.8617 44.5087 95.8617C44.2631 95.8617 44.0666 94.6757 44.0666 93.1933ZM46.0886 95.4699C45.9562 95.2545 46.4617 94.3039 47.2118 93.3575L48.5757 91.6368L47.4264 91.4961C45.6474 91.2783 46.0704 90.525 47.9718 90.525C50.2544 90.525 50.4459 90.8576 49.1486 92.5686C47.7161 94.4579 47.7576 94.9108 49.3548 94.8224C50.2918 94.7705 50.9898 94.3072 51.8091 93.1934L52.954 91.6368L51.826 91.4962C49.9243 91.2589 50.5753 90.5251 52.6875 90.5251C53.7816 90.5251 54.6769 90.7098 54.6769 90.9357C54.6769 91.1615 54.1795 91.9409 53.5717 92.6676C52.9638 93.3943 52.4664 94.2102 52.4664 94.4806C52.4664 94.7511 52.9638 94.9724 53.5717 94.9724C54.1795 94.9724 54.6769 95.1725 54.6769 95.4171C54.6769 95.9716 46.428 96.0224 46.0886 95.4699ZM55.8137 95.1628C54.3032 93.6434 55.2734 90.525 57.2566 90.525C58.664 90.525 59.5399 91.2415 59.5399 92.3928C59.5399 93.0036 59.1906 93.1933 58.0663 93.1933C57.2557 93.1933 56.4617 93.3249 56.3017 93.486C55.7986 93.9921 56.9493 94.9722 58.0467 94.9722C58.6248 94.9722 59.0978 95.1724 59.0978 95.417C59.0978 96.1261 56.5774 95.9311 55.8137 95.1628ZM58.2545 92.0815C58.2513 91.8369 57.8429 91.5728 57.3469 91.4947C56.4578 91.3544 56.1508 91.8594 56.7553 92.4675C57.1851 92.8999 58.2616 92.6228 58.2545 92.0815ZM60.7068 95.5531C60.5513 95.3966 60.4241 94.2347 60.4241 92.9709C60.4241 90.7144 60.4479 90.6732 61.7504 90.6732C63.2185 90.6732 63.4144 91.0236 62.4135 91.8591C62.0488 92.1636 61.7504 93.0769 61.7504 93.8886C61.7504 95.3383 61.2642 96.1138 60.7068 95.5531ZM64.2435 95.5531C64.088 95.3966 63.9608 94.2014 63.9608 92.8968C63.9608 91.085 64.1174 90.525 64.624 90.525C65.1322 90.525 65.2871 91.0903 65.2871 92.9447C65.2871 95.2167 64.8917 96.2051 64.2435 95.5531ZM66.3473 95.2368C65.8704 93.9866 66.3982 93.0477 67.855 92.5546C69.4305 92.0213 69.3187 91.4144 67.645 91.4144C67.0776 91.4144 66.6134 91.2142 66.6134 90.9697C66.6134 90.7251 67.3059 90.525 68.1523 90.525C69.8078 90.525 69.9916 90.8358 70.2485 94.0705C70.3694 95.5924 70.3439 95.6168 68.4846 95.7545C67.1324 95.8547 66.527 95.7079 66.3473 95.2368ZM69.008 94.2415C69.1613 93.8396 69.1912 93.4146 69.0744 93.2971C68.6632 92.8834 67.4976 93.6183 67.4976 94.2912C67.4976 95.2017 68.6563 95.1636 69.008 94.2415ZM31.3472 92.2204C31.6205 91.3958 32.5722 91.259 32.5722 92.0444C32.5722 92.4317 32.2572 92.7485 31.8722 92.7485C31.4872 92.7485 31.251 92.5109 31.3472 92.2204ZM76.3394 92.0444C76.3394 91.6571 76.5757 91.4194 76.8644 91.5163C77.6842 91.7912 77.8201 92.7485 77.0394 92.7485C76.6544 92.7485 76.3394 92.4317 76.3394 92.0444ZM44.0666 89.1907C44.0666 88.9461 44.2656 88.746 44.5087 88.746C44.7519 88.746 44.9508 88.9462 44.9508 89.1907C44.9508 89.4353 44.7519 89.6355 44.5087 89.6355C44.2656 89.6355 44.0666 89.4353 44.0666 89.1907ZM63.9608 89.1907C63.9608 88.9461 64.2592 88.746 64.624 88.746C64.9887 88.746 65.2871 88.9462 65.2871 89.1907C65.2871 89.4353 64.9887 89.6355 64.624 89.6355C64.2592 89.6355 63.9608 89.4353 63.9608 89.1907ZM19.0858 84.3703C18.9657 84.2496 18.8673 81.0819 18.8673 77.3314V70.5123H23.0672H27.2671V71.8242C27.2671 73.1095 27.2153 73.1389 24.7251 73.2696C22.2248 73.4009 22.183 73.4249 22.183 74.7372C22.183 76.0309 22.2567 76.0781 24.6145 76.2937C25.9519 76.4162 26.9963 76.6661 26.9355 76.8496C26.8747 77.0331 26.825 77.573 26.825 78.0494C26.825 78.7808 26.4638 78.9365 24.504 79.05L22.183 79.1845L22.0518 81.6943C21.9262 84.0981 21.8655 84.2122 20.6125 84.3972C19.8931 84.5033 19.206 84.4911 19.0858 84.3703ZM29.6598 84.3356C29.5596 84.2337 29.4776 81.0696 29.4776 77.3044V70.4584L31.1354 70.5963L32.7933 70.7342L32.9174 76.1821L33.0415 81.63H35.6805C38.3042 81.63 38.3194 81.6364 38.3194 82.9337V84.2373L34.0807 84.379C31.7495 84.457 29.7601 84.4375 29.6598 84.3356ZM39.3759 84.2191C39.2631 84.0354 40.0734 80.9606 41.1766 77.3862C42.2798 73.8119 43.1825 70.8028 43.1825 70.6996C43.1825 70.5965 44.1561 70.5119 45.3461 70.5119H47.5098L49.3406 76.4046C50.3475 79.6455 51.353 82.7342 51.5751 83.2684C52.0517 84.4153 51.6701 84.6268 49.5696 84.3801C48.3716 84.2395 48.0444 83.9717 47.8212 82.9493C47.6701 82.2575 47.3107 81.5022 47.0224 81.2708C46.5875 80.9218 44.6941 80.8369 43.5632 81.1158C43.4079 81.1541 43.1502 81.8858 42.9906 82.7419C42.8309 83.598 42.5601 84.3147 42.3888 84.3346C40.6381 84.5375 39.5459 84.4958 39.3759 84.2191ZM46.4175 78.1835C46.5235 78 46.3121 76.8493 45.9478 75.6263L45.2856 73.4027L44.7169 75.6241C44.4042 76.8458 44.2412 77.9966 44.3546 78.1813C44.6215 78.6157 46.167 78.6179 46.4175 78.1835ZM66.5029 84.396C65.3725 84.2504 65.2868 84.0931 65.2833 82.1565C65.2812 81.0109 65.1494 78.9837 64.9904 77.6517L64.7013 75.2298L63.3251 79.6529C62.0009 83.9088 61.8976 84.0812 60.5962 84.21C59.2439 84.3437 59.2434 84.343 58.2481 80.4298C56.7246 74.4405 56.6815 74.4161 56.4453 79.4065L56.2242 84.0761L54.7323 84.2197L53.2405 84.3634L53.5642 77.7713C53.7422 74.1457 53.9777 71.0292 54.0874 70.8458C54.1972 70.6623 55.1754 70.5123 56.2612 70.5123C58.513 70.5123 58.6134 70.6635 59.8782 75.9601C60.2725 77.6112 60.7095 78.962 60.8495 78.962C60.9894 78.962 61.6108 77.1109 62.2304 74.8483L63.357 70.7346L65.5799 70.6024L67.8028 70.4704L68.0923 75.2301C68.4709 81.4547 68.4582 84.2108 68.0502 84.3994C67.8678 84.4838 67.1715 84.483 66.5029 84.396ZM82.5288 84.3339C81.6545 84.0804 81.4425 83.753 81.5141 82.7676C81.6348 81.1077 81.7412 81.0476 83.6302 81.5722C85.4859 82.0877 87.3918 81.5724 87.3918 80.5553C87.3918 80.1967 86.2144 79.272 84.7753 78.5004C81.1462 76.5546 80.315 74.156 82.4302 71.733C83.9238 70.0221 89.323 69.7072 89.929 71.2956C90.4212 72.5861 89.4299 73.3231 87.1469 73.3637C84.0415 73.419 84.1413 74.5813 87.3918 76.2142C90.2526 77.6514 91.2387 79.2117 90.6318 81.3407C89.8597 84.0487 86.2029 85.3995 82.5288 84.3339ZM70.6912 77.5163L70.8133 70.7343L75.1237 70.6069L79.4341 70.4796V71.8299V73.1802H76.7815H74.129V74.5143C74.129 75.8351 74.1536 75.8485 76.5605 75.8485C78.9674 75.8485 78.992 75.8612 78.992 77.1827C78.992 78.5034 78.9674 78.5169 76.5605 78.5169H74.129V80.0522V81.5875L76.8921 81.7199C79.5401 81.8468 79.661 81.9032 79.795 83.0753L79.9349 84.2983H75.252H70.5692L70.6912 77.5163ZM22.9928 65.6797C16.63 65.5246 11.3068 65.2795 11.1636 65.1351C10.6998 64.6673 29.5825 64.2881 53.3506 64.288C79.2577 64.2878 99.9692 64.7419 96.4547 65.233C93.3069 65.6728 36.808 66.0164 22.9928 65.6797ZM29.4809 58.1709C29.4923 43.4018 34.9444 33.5381 45.1719 29.7836L47.8244 28.8098L48.0704 24.4228L48.3163 20.0357L48.402 24.8165C48.4669 28.4459 48.3515 29.5973 47.9225 29.5973C47.6117 29.5973 45.9538 30.274 44.2383 31.101C38.8794 33.6845 35.3457 38.1345 33.072 45.1627C32.0549 48.3067 30.8106 55.8175 30.8065 58.838L30.8037 60.7281H39.0126H47.2214L46.2368 59.3371C44.8805 57.421 44.6077 54.0781 45.6228 51.8136C46.3796 50.1253 46.7185 49.8626 47.9348 50.0215C48.2388 50.0611 48.4874 49.8853 48.4874 49.6308C48.4874 49.3761 49.1837 48.3925 50.0348 47.4449C50.8858 46.4973 51.5821 45.296 51.5821 44.7753C51.5821 44.2546 51.8562 43.8285 52.1911 43.8285C53.2589 43.8285 53.9788 45.1981 53.9102 47.0988L53.8436 48.9429L54.7391 47.7199C55.8962 46.1397 56.8872 46.1287 56.8872 47.696C56.8872 48.3555 57.4343 49.6892 58.103 50.6598C59.108 52.1187 59.3187 52.8997 59.3187 55.1656C59.3187 57.4813 59.127 58.1595 58.0831 59.5362C56.9173 61.0738 54.9751 62.0659 54.3541 61.4412C54.1992 61.2855 54.308 60.9212 54.5957 60.6317C54.8834 60.3423 55.1189 59.6452 55.1189 59.0826C55.1189 58.2846 54.8728 58.0597 53.9997 58.0597C53.3842 58.0597 52.7666 57.7607 52.6271 57.3952C52.293 56.5192 51.5821 56.9891 51.5821 58.086C51.5821 58.5607 51.3831 58.9492 51.14 58.9492C50.4544 58.9492 50.6207 57.964 51.5443 56.5548C52.3824 55.2759 52.3865 55.2749 52.974 56.2213C53.298 56.7432 53.9993 57.1703 54.5323 57.1703C55.6079 57.1703 56.1942 58.3752 55.7216 59.6143C55.0922 61.2642 56.6787 59.9923 57.6885 58.0375C59.0092 55.4807 58.7712 53.4273 56.8407 50.723C55.5132 48.8635 55.3456 48.7581 55.0395 49.5905C54.8539 50.0953 54.8953 51.0196 55.1315 51.6446C55.686 53.1119 55.6786 53.1678 54.9299 53.1678C54.5828 53.1678 53.8679 52.6174 53.3411 51.9447C52.5386 50.9198 52.4274 50.3616 52.655 48.4981L52.9265 46.2745L50.8824 48.4097C49.3024 50.06 48.8996 50.7669 49.1084 51.5228C49.9108 54.4274 49.9133 54.5019 49.2087 54.5019C48.8232 54.5019 48.168 53.9802 47.7527 53.3425C47.0426 52.2523 46.9627 52.2308 46.4162 52.9828C45.0443 54.8701 46.2012 57.7738 49.3342 60.3065C50.3274 61.1095 51.14 61.933 51.14 62.1367C51.14 62.3403 46.2659 62.507 40.3087 62.507H29.4774L29.4809 58.1709ZM78.7771 56.3866C77.4835 44.1488 72.366 35.1546 64.6586 31.5723C59.8906 29.3562 59.8023 29.1582 60.0934 21.3355C60.3566 14.2609 60.1636 13.5937 57.8505 13.5804C57.1992 13.5768 56.3679 13.3796 56.0032 13.1425C55.532 12.8362 56.0688 12.7094 57.857 12.7046C61.467 12.6949 61.7388 13.2153 61.7944 20.2459C61.858 28.2801 61.5397 27.683 67.1681 30.3273C74.191 33.6269 78.7477 42.6757 79.6081 55.0313C79.9263 59.6001 79.2358 60.7262 78.7771 56.3866Z" fill="black"/>
</svg>
